<svg width="242" height="257" viewBox="0 0 242 257" fill="none" xmlns="http://www.w3.org/2000/svg">
<mask id="mask0_54_205" style="mask-type:alpha" maskUnits="userSpaceOnUse" x="0" y="0" width="242" height="257">
<path fill-rule="evenodd" clip-rule="evenodd" d="M79.8466 5.17183C78.3515 5.30648 76.9133 5.47396 76.3224 5.58232C73.4596 6.10737 72.3932 6.3367 71.1682 6.69081C70.6471 6.84135 69.9131 7.04912 69.537 7.15242C69.1609 7.25573 68.3088 7.53935 67.6434 7.78267C66.978 8.026 66.3153 8.26154 66.1706 8.30604C66.026 8.35054 65.3869 8.60891 64.7504 8.88033C64.114 9.15164 63.4039 9.45398 63.1724 9.55224C62.6827 9.76022 59.1624 11.5322 58.5437 11.8823C57.2562 12.6106 56.0205 13.3494 55.2299 13.8637C54.7381 14.1837 54.0043 14.6602 53.5993 14.9228C52.101 15.8942 48.0035 18.9558 47.1731 19.7244C47.1103 19.7826 46.8512 19.9958 46.5974 20.1983C43.1116 22.9795 37.13 28.9151 33.3455 33.3483C32.5799 34.2451 31.7306 35.2393 31.4582 35.5575C30.4675 36.7146 27.2226 40.8372 26.0761 42.3955C23.9422 45.2954 22.5117 47.2818 21.7198 48.4445C20.016 50.9457 17.7335 54.401 16.7794 55.9232C16.6636 56.1079 16.1401 56.9386 15.6157 57.7695C14.829 59.0165 14.043 60.305 13.2202 61.6971C13.1526 61.8114 12.9525 62.1427 12.7754 62.4335C12.5983 62.7242 12.4211 63.0331 12.3817 63.1198C12.3422 63.2066 12.0006 63.7747 11.6224 64.3822C11.2443 64.9898 10.8407 65.6762 10.7255 65.9076C10.6104 66.1391 10.4701 66.3994 10.4137 66.4862C10.2841 66.6858 9.42001 68.2099 8.9059 69.1458C8.49278 69.8975 8.45112 69.9721 7.5888 71.5008C7.08047 72.4019 6.71154 73.5484 6.8767 73.7136C6.97832 73.8152 7.50411 73.2809 8.29058 72.2767C8.91736 71.4765 9.71615 70.2177 11.5839 67.0866C12.3021 65.8825 13.8812 63.391 14.3807 62.6738C14.5717 62.3995 14.728 62.1561 14.728 62.1328C14.728 62.0793 16.9769 58.6995 17.9912 57.2287C20.4352 53.6845 20.8672 53.0907 24.5641 48.1948C25.364 47.1356 27.9391 43.9784 29.314 42.3712C35.0405 35.6777 41.0282 29.9303 46.6561 25.7251C48.4073 24.4165 49.7372 23.4595 49.8041 23.4595C49.8282 23.4595 50.241 23.1888 50.7214 22.8578C51.4873 22.3302 53.7407 20.9347 53.8266 20.9347C53.844 20.9347 54.1184 20.7683 54.4366 20.5648C55.0481 20.1736 58.6332 18.3325 59.7009 17.8613C64.251 15.8536 67.8815 14.7386 72.6404 13.8874C73.5414 13.7262 75.7337 13.4746 77.2166 13.3623C82.3605 12.9723 88.126 13.6345 94.2853 15.3229C94.3865 15.3506 94.4694 15.4648 94.4694 15.5766C94.4694 15.8291 94.1276 15.8431 93.1225 15.6319C89.1084 14.7887 82.777 14.5847 78.1634 15.15C76.4242 15.3632 76.1372 15.4073 74.4888 15.716C73.6429 15.8743 71.5378 16.3797 70.6416 16.6394C69.8758 16.8615 67.3859 17.6891 67.0648 17.8284C66.8913 17.9036 66.4179 18.0953 66.0128 18.2541C63.5065 19.2376 60.0076 21.074 57.5732 22.6839C56.3196 23.5129 52.9788 25.9722 52.494 26.423C52.349 26.5578 51.8079 27.0232 51.2916 27.4571C50.1768 28.3939 48.0254 30.437 46.9201 31.6081C45.0825 33.5555 44.2628 34.4504 43.8953 34.9107C43.6806 35.1796 43.1479 35.8258 42.7115 36.3465C42.2752 36.8672 41.7545 37.5063 41.5546 37.7667C41.3547 38.0271 41.1647 38.2638 41.1323 38.2927C40.8863 38.5124 36.9251 44.1176 36.9251 44.2458C36.9251 44.2652 36.6421 44.6855 36.2963 45.1798C35.9505 45.6741 35.5836 46.2264 35.481 46.4074C35.3785 46.5882 35.247 46.8128 35.1889 46.9066C34.645 47.7838 32.9327 50.6719 32.6865 51.1271C32.5144 51.4453 32.291 51.8477 32.19 52.0213C32.0891 52.1948 31.7791 52.7629 31.5011 53.2837C31.2232 53.8044 30.8611 54.4672 30.6964 54.7565C30.2148 55.6028 26.7207 62.7153 26.7207 62.8493C26.7207 62.89 26.4459 63.5091 25.8766 64.7504C25.6546 65.2346 24.7685 67.2278 24.5671 67.696C24.4924 67.8696 24.2339 68.5087 23.9926 69.1162C23.7514 69.7238 23.5124 70.3155 23.4614 70.4312C23.4105 70.5469 23.1266 71.257 22.8306 72.0092C22.5344 72.7614 22.2522 73.4715 22.2034 73.5872C21.7358 74.6952 21.5659 75.1541 21.5659 75.3089C21.5659 75.4093 21.5283 75.5364 21.4822 75.5913C21.4361 75.6463 21.3361 75.8806 21.2597 76.112C21.1833 76.3434 21.0599 76.6748 20.9854 76.8484C20.9108 77.022 20.777 77.377 20.688 77.6374C20.599 77.8978 20.4557 78.3002 20.3696 78.5316C19.8463 79.9391 19.3927 81.2362 18.9719 82.5292C18.7084 83.3392 18.4538 84.0967 18.4063 84.2124C18.3587 84.3281 18.2421 84.6832 18.147 85.0014C18.0519 85.3196 17.9335 85.6747 17.884 85.7904C17.8344 85.9061 17.7161 86.2612 17.621 86.5794C17.5259 86.8976 17.4093 87.2527 17.3617 87.3684C17.3143 87.4841 17.1522 87.9812 17.0016 88.473C16.8511 88.9648 16.6093 89.7446 16.4643 90.2058C16.3193 90.6671 16.2008 91.1259 16.2008 91.2253C16.2008 91.3248 16.1534 91.4354 16.0956 91.4712C16.0377 91.5069 15.9904 91.6175 15.9904 91.717C15.9904 91.8164 15.8785 92.2515 15.7419 92.6839C15.6052 93.1162 15.4111 93.754 15.3106 94.1012C15.0495 95.0029 14.9615 95.2958 14.7734 95.8896C14.6155 96.3883 14.5252 96.709 14.1445 98.1251C13.9676 98.783 13.5015 100.507 13.3412 101.097C13.2862 101.299 13.2005 101.631 13.1506 101.833C13.1007 102.036 12.9346 102.651 12.7815 103.201C12.6282 103.751 12.3621 104.768 12.1902 105.463C12.0182 106.157 11.8132 106.962 11.7346 107.251C11.6559 107.54 11.3704 108.7 11.1 109.829C10.8298 110.957 10.4682 112.448 10.2967 113.142C10.0418 114.175 9.99766 114.525 10.0548 115.067C10.099 115.486 10.1683 115.715 10.2434 115.69C10.3087 115.669 10.5371 115.3 10.7509 114.87C11.2611 113.845 11.6656 112.814 12.9556 109.25C13.1859 108.613 13.4438 107.903 13.5287 107.672C13.6135 107.44 13.7548 107.038 13.8425 106.778C13.9303 106.517 14.0433 106.21 14.0936 106.094C14.1792 105.897 14.3228 105.501 14.9984 103.595C15.1472 103.176 15.3174 102.714 15.3766 102.57C15.4359 102.425 15.5532 102.094 15.6374 101.833C15.7217 101.573 15.8333 101.265 15.8855 101.15C15.9377 101.034 16.2212 100.276 16.5155 99.4663C16.8099 98.6563 17.1161 97.8515 17.196 97.678C17.2758 97.5044 17.6785 96.4629 18.0909 95.3636C18.5033 94.2642 18.9028 93.2227 18.9788 93.0492C19.1184 92.7302 19.1942 92.5496 19.5089 91.7868C19.6044 91.5553 19.7276 91.2838 19.7826 91.1833C19.8377 91.0829 19.8828 90.9497 19.8828 90.8875C19.8828 90.8252 19.9942 90.5288 20.1303 90.2285C20.2664 89.9284 20.6291 89.0674 20.9363 88.3152C21.2435 87.563 21.6528 86.6009 21.846 86.1772C22.0391 85.7535 22.1971 85.3867 22.1971 85.3622C22.1971 85.3376 22.3444 84.9979 22.5245 84.6072C22.7045 84.2165 22.9349 83.7074 23.0365 83.476C23.3157 82.8398 23.5179 82.3832 23.828 81.6876C23.9827 81.3404 24.1935 80.867 24.2963 80.6356C24.6682 79.7989 25.0279 79.0318 25.7024 77.6374C26.0802 76.8563 26.6733 75.5636 27.0203 74.7646C27.5659 73.5085 28.4451 72.0678 28.5821 72.205C28.6059 72.2288 28.4363 72.6915 28.2053 73.2333C27.7199 74.3714 27.5512 74.965 26.8341 78.0582C25.4875 83.8669 24.4459 90.3038 23.7357 97.2046C23.1186 103.201 23.1421 102.844 22.8164 111.196C22.6795 114.706 22.682 126.593 22.8204 129.974C22.9 131.922 22.9287 132.137 23.2062 132.863L23.506 133.647L23.7537 132.863C23.9956 132.096 24.0034 131.945 24.0981 126.187C24.1514 122.947 24.2236 119.808 24.2585 119.212L24.3222 118.128L24.7954 118.765C25.0556 119.115 25.2768 119.402 25.2868 119.402C25.2968 119.402 25.3132 118.798 25.3231 118.06C25.333 117.323 25.4103 116.317 25.4946 115.825C25.5844 115.302 25.611 114.861 25.5587 114.764C25.4328 114.529 25.6223 113.321 25.8791 112.722C26.1162 112.168 26.0816 111.872 25.7686 111.773C25.4388 111.668 25.1355 111.823 24.9706 112.179C24.8301 112.483 24.8219 112.392 24.8738 111.091C24.905 110.31 25.0031 108.937 25.0918 108.04C25.1806 107.143 25.2969 105.96 25.3503 105.41C25.445 104.436 25.7007 102.263 25.8826 100.887C26.2856 97.837 26.3922 97.0989 26.6113 95.837C26.9066 94.1368 27.0646 93.2058 27.138 92.7336C27.1829 92.4443 27.3012 91.8288 27.401 91.366C27.5007 90.9031 27.6236 90.3113 27.6741 90.051C27.7246 89.7906 27.8408 89.2462 27.9324 88.8412C28.024 88.4362 28.1402 87.8917 28.1907 87.6314C28.2412 87.371 28.4079 86.6609 28.5612 86.0534C28.7146 85.4459 28.8796 84.7831 28.9281 84.5806C29.2939 83.0515 29.491 82.289 29.5667 82.1084C29.6153 81.9927 29.756 81.5429 29.8794 81.109C30.0028 80.675 30.144 80.178 30.1933 80.0044C30.2426 79.8308 30.3605 79.4284 30.4553 79.1102C30.5501 78.792 30.6669 78.3896 30.7146 78.216C30.7625 78.0424 30.9991 77.356 31.2404 76.6906C31.4818 76.0252 31.7989 75.1258 31.9454 74.6918C32.1994 73.9392 33.6599 70.3256 34.114 69.3266C35.0475 67.2723 35.8174 65.6995 36.4311 64.5926C36.6076 64.2744 36.8799 63.7716 37.0362 63.4753C37.294 62.9867 37.9981 61.7978 38.3979 61.1763C38.4847 61.0413 38.7336 60.6305 38.9509 60.2632C41.0417 56.7321 45.4649 51.549 48.7601 48.7692C50.532 47.2744 52.3165 45.8671 52.4399 45.8671C52.4717 45.8671 52.8167 45.6356 53.2064 45.3528C56.2374 43.1524 61.9185 40.46 66.1706 39.2088C67.793 38.7313 68.2122 38.6176 69.1688 38.3954C69.6896 38.2743 70.4027 38.107 70.7536 38.0236C71.1044 37.9402 71.5013 37.8719 71.6356 37.8719C71.7698 37.8719 72.0508 37.8274 72.26 37.773C72.9077 37.6048 74.2774 37.3676 75.323 37.2427C75.8727 37.177 76.6065 37.0786 76.9536 37.0241C77.3008 36.9696 78.4944 36.8545 79.6059 36.7685C82.0426 36.5797 85.2527 36.6883 87.4736 37.0346C88.5529 37.2029 89.9793 37.4638 90.4192 37.5733C90.6506 37.631 91.0057 37.7195 91.2082 37.7701C92.2466 38.0291 94.0511 38.5816 94.6272 38.8168C94.7429 38.864 95.0033 38.9619 95.2058 39.0343C96.1314 39.3651 97.2714 39.8733 98.7826 40.6288C100.215 41.3447 100.952 41.7425 101.148 41.9055C101.207 41.9543 101.728 42.2908 102.307 42.6533C103.345 43.3038 103.66 43.6579 103.202 43.6579C103.078 43.6579 102.897 43.6154 102.8 43.5635C102.639 43.4781 102.139 43.3984 100.045 43.1247C98.4074 42.9107 95.0884 42.6114 93.0492 42.4937C89.1493 42.2688 82.8574 42.5204 79.7677 43.0246C79.4061 43.0836 78.7906 43.1828 78.4001 43.245C78.0096 43.3072 77.2166 43.4549 76.638 43.5732C76.0594 43.6916 75.382 43.8291 75.1328 43.8789C74.6234 43.9806 71.9689 44.667 71.4832 44.8225C70.0235 45.2899 69.1657 45.579 68.5376 45.8155C68.1326 45.9681 67.6829 46.132 67.5382 46.1797C67.2612 46.2714 67.1739 46.3098 64.1192 47.6862C62.8634 48.2521 59.6702 50.0983 58.0401 51.2012C53.3012 54.4072 48.4534 59.1896 45.3183 63.7511C45.2188 63.8958 44.9857 64.2271 44.8002 64.4874C44.4122 65.0317 42.6858 67.723 42.5732 67.959C42.4912 68.131 42.1151 68.812 41.5568 69.8C41.1588 70.5043 39.67 73.4748 39.4082 74.0869C39.1793 74.6223 38.9898 75.0573 38.6864 75.7438C38.5458 76.062 38.3712 76.4881 38.2985 76.6906C38.2258 76.8931 38.1283 77.1535 38.0819 77.2692C37.5017 78.7165 37.0213 80.0465 36.6572 81.2142C36.5038 81.706 36.3396 82.2031 36.2922 82.3188C36.245 82.4345 36.1819 82.6239 36.152 82.7396C36.1221 82.8553 36.0198 83.2104 35.9245 83.5286C35.8291 83.8468 35.7119 84.2729 35.664 84.4754C35.616 84.6779 35.4515 85.317 35.2984 85.8956C35.0338 86.8954 34.7475 88.0634 34.5119 89.1042C34.453 89.3645 34.2844 90.2167 34.1371 90.9978C33.9898 91.7789 33.8216 92.6255 33.7632 92.8793C33.4403 94.2832 34.4968 92.7477 35.2389 90.7348C35.3668 90.3876 35.5343 89.9379 35.611 89.7354C35.6876 89.5329 35.9156 88.9174 36.1175 88.3678C37.0993 85.6943 38.0833 83.2563 38.7922 81.7402C40.146 78.845 40.6281 77.8602 41.1448 76.9345C41.3327 76.5978 41.5383 76.2277 41.6019 76.112C42.4092 74.6405 43.9814 72.2124 45.2639 70.4566C47.4236 67.4996 50.224 64.4571 52.8103 62.258C54.6211 60.7183 54.8687 60.5146 55.2415 60.2577C55.4376 60.1226 55.9685 59.7364 56.4211 59.3995C57.2727 58.7656 59.9079 57.0779 60.9151 56.5212C61.9925 55.9257 64.3285 54.7444 64.9082 54.5019C65.2265 54.3687 65.7472 54.1426 66.0654 53.9993C67.1114 53.5285 67.2673 53.4646 68.0642 53.1808C68.4982 53.0262 69.0189 52.8366 69.2214 52.7595C70.4176 52.3035 70.8903 52.1465 72.2196 51.7633C73.0297 51.5298 73.8344 51.2942 74.008 51.2397C74.3332 51.1377 75.7313 50.8109 77.8478 50.3424C78.5132 50.1951 79.5201 50.0059 80.0853 49.9219C80.6504 49.838 81.3842 49.7223 81.7159 49.6649C82.9233 49.4558 83.8281 49.3453 85.6326 49.1866C86.6451 49.0975 87.9707 48.9784 88.5782 48.9219C91.4789 48.6522 99.3478 48.7322 103.043 49.0688C106.733 49.405 106.58 49.4079 107.882 48.9761C108.519 48.765 109.241 48.5645 109.487 48.5304C109.896 48.4737 109.934 48.488 109.934 48.7C109.934 48.9322 109.535 50.615 109.247 51.6005C109.163 51.8898 108.972 52.5762 108.824 53.1259C108.676 53.6755 108.411 54.5277 108.236 55.0195C108.061 55.5113 107.826 56.1946 107.714 56.5382C107.367 57.6009 105.974 60.2822 105.227 61.3228C103.661 63.5051 101.51 65.2596 98.7841 66.5772C98.1156 66.9004 98.0712 66.907 96.5732 66.907C95.1378 66.907 92.2845 67.099 90.2614 67.3316C87.9938 67.5924 84.7023 68.1724 82.4766 68.7031C80.4987 69.1748 79.8748 69.3406 79.0576 69.6115C78.5369 69.7841 77.7558 70.0341 77.3218 70.167C76.6561 70.3708 75.6411 70.7442 74.7444 71.115C74.6287 71.1629 74.1553 71.3532 73.6924 71.5379C69.7315 73.119 65.6665 75.7151 62.797 78.4963C61.6821 79.577 60.5951 80.79 60.5951 80.9536C60.5951 81.0295 60.5561 81.1072 60.5086 81.1266C60.3197 81.203 58.902 83.1311 58.2923 84.1405C57.6098 85.2704 57.0164 86.6286 56.1747 88.9869C55.6315 90.5087 55.1771 91.7612 54.548 93.47C54.3349 94.0486 54.1133 94.664 54.0554 94.8376C53.9975 95.0111 53.909 95.2478 53.8586 95.3636C53.8083 95.4793 53.5238 96.2367 53.2267 97.0468C52.5591 98.866 51.6583 101.288 51.5444 101.57C51.4978 101.686 51.3336 102.136 51.1797 102.57C51.0258 103.004 50.8564 103.453 50.8033 103.569C50.7501 103.685 50.5607 104.182 50.3823 104.674C50.2037 105.166 49.9263 105.923 49.7657 106.357C49.605 106.791 49.2749 107.69 49.032 108.356C48.7891 109.021 48.55 109.66 48.5007 109.776C48.4513 109.892 48.3845 110.069 48.3521 110.17C48.2962 110.346 51.9026 110.355 123.087 110.355C166.411 110.355 197.881 110.315 197.881 110.261C197.881 110.21 197.811 109.938 197.727 109.657C197.642 109.375 197.454 108.742 197.31 108.251C197.165 107.759 196.927 106.954 196.781 106.462C196.635 105.97 196.063 104.006 195.51 102.096C194.958 100.187 194.386 98.2224 194.24 97.7306C194.094 97.2387 193.864 96.4576 193.729 95.9948C193.593 95.5319 193.316 94.5851 193.112 93.8908C192.713 92.5319 192.422 91.4193 192.356 90.9978C192.257 90.3645 192.092 89.5235 191.933 88.8412C191.839 88.4362 191.721 87.9154 191.672 87.684C191.293 85.911 190.813 84.4583 190.28 83.476C190.218 83.3603 190.055 83.0437 189.919 82.7726C189.38 81.7019 187.83 80.0206 186.307 78.8566C185.733 78.4175 185.238 78.0582 185.206 78.0582C185.175 78.0582 184.923 77.9044 184.646 77.7163C184.369 77.5282 184.05 77.3227 183.937 77.2596C183.824 77.1965 183.447 76.9856 183.1 76.791C182.441 76.4215 180.658 75.5334 180.576 75.5334C180.55 75.5334 180.184 75.3641 179.763 75.1571C179.342 74.9502 178.642 74.6402 178.208 74.4682C177.774 74.2962 177.23 74.0692 176.999 73.9638C176.561 73.7647 175.664 73.4965 175.087 73.3929C174.904 73.3599 174.004 73.0429 173.089 72.6885C172.172 72.3341 171.257 71.9802 171.055 71.902C170.702 71.7659 169.543 71.3924 167.741 70.8349C166.588 70.478 163.342 69.5872 162.639 69.4348C162.195 69.3385 160.437 68.9362 159.851 68.7968C159.2 68.642 157.275 68.2534 156.748 68.1704C156.318 68.1027 154.413 67.7978 152.803 67.5385C152.455 67.4827 151.39 67.3638 150.436 67.2745C149.481 67.1851 148.383 67.0659 147.996 67.0095C147.608 66.9531 146.543 66.9068 145.629 66.9065C143.636 66.906 141.394 66.6096 139.284 66.0681C134.524 64.8455 130.25 61.8364 127.846 58.0135C126.39 55.6994 125.827 54.7057 124.987 52.9681C124.038 51.0041 123.611 50.0031 123.091 48.5249C122.864 47.8792 122.863 47.8498 123.027 46.6839C123.55 42.9583 123.226 35.9875 122.35 32.1385C121.853 29.9559 121.661 29.1872 121.441 28.5091C121.301 28.0752 121.136 27.5544 121.074 27.3519C120.666 26.0114 119.139 22.5988 118.502 21.6032C118.303 21.2912 118.139 21.0115 118.139 20.9818C118.139 20.9066 116.761 18.9014 116.227 18.1996C115.497 17.2404 112.684 14.5046 111.617 13.7168C109.876 12.4308 107.868 11.2759 105.778 10.3575C105.431 10.205 104.958 9.99408 104.726 9.88877C103.909 9.51658 102.823 9.07095 102.044 8.78712C100.219 8.12289 99.2432 7.76048 99.0456 7.6739C98.3836 7.38386 93.9468 6.19805 92.7846 6.00048C92.4672 5.94652 91.6868 5.80955 91.0504 5.69614C89.5086 5.42126 89.2571 5.39043 87.0569 5.20707C85.0501 5.0398 81.5047 5.02244 79.8466 5.17183ZM109.066 61.1907C109.138 61.2199 109.257 61.2199 109.329 61.1907C109.401 61.1615 109.342 61.1377 109.197 61.1377C109.053 61.1377 108.994 61.1615 109.066 61.1907ZM44.4432 120.427C43.8219 122.183 36.7505 141.261 32.3259 153.118L29.8135 159.851L121.123 159.877C171.344 159.892 212.445 159.892 212.459 159.877C212.485 159.85 208.93 147.708 207.993 144.629C207.7 143.662 206.724 140.662 205.826 137.962C204.928 135.262 204.193 132.948 204.193 132.821C204.193 132.602 203.965 131.801 203.772 131.342C203.723 131.226 203.321 129.995 202.877 128.607C202.434 127.218 202.034 125.987 201.989 125.871C201.944 125.756 201.826 125.401 201.726 125.082C201.626 124.764 201.506 124.409 201.458 124.293C201.411 124.178 201.128 123.302 200.83 122.347C200.532 121.393 200.243 120.529 200.189 120.429C200.135 120.328 200.09 120.151 200.09 120.034V119.822H122.374H44.6572L44.4432 120.427ZM25.9971 170.187C25.8228 170.697 24.8369 173.358 24.7205 173.632C24.6343 173.835 24.2317 174.918 23.5084 176.893C23.1435 177.889 22.9918 178.296 22.0967 180.681C20.7121 184.369 20.0442 186.163 15.6737 197.933C11.0085 210.497 10.0983 212.995 9.6162 214.555C9.47324 215.018 9.258 215.633 9.13807 215.922C9.01804 216.212 8.75757 216.916 8.55905 217.486C8.36065 218.057 8.12247 218.671 8.03 218.85C7.66338 219.559 7.26163 220.938 7.36525 221.132C7.48707 221.36 15.5878 225.505 16.4112 225.762C16.7294 225.861 19.5935 226.875 22.7757 228.017C25.958 229.158 29.3428 230.366 30.2975 230.7C31.2522 231.035 32.6961 231.548 33.5061 231.841C34.9294 232.355 35.1486 232.4 40.0285 233.178C42.8058 233.621 49.031 234.619 53.8623 235.396C58.6936 236.172 62.9542 236.855 63.3302 236.913C63.8939 237 70.6673 237.583 76.7432 238.067C77.4954 238.127 81.6613 238.48 86.0008 238.85C93.5186 239.492 94.1339 239.529 99.0456 239.64C101.881 239.705 106.899 239.832 110.197 239.923C116.705 240.103 118.882 240.082 128.554 239.747C131.765 239.635 135.884 239.494 137.706 239.434C139.529 239.373 142.511 239.208 144.334 239.067C146.157 238.926 148.05 238.783 148.542 238.749C149.585 238.676 157.349 238.055 161.008 237.751C162.618 237.617 166.506 237.119 171.739 236.377C179.91 235.218 179.981 235.206 188.886 233.436C193.804 232.458 198.159 231.562 198.565 231.444C199.944 231.041 208.235 228.577 210.61 227.863C211.912 227.472 214.965 226.407 217.395 225.497C219.825 224.587 222.027 223.778 222.287 223.698C222.547 223.619 223.871 222.957 225.229 222.227C227.367 221.078 228.652 220.246 229.961 219.163C229.987 219.142 229.933 218.996 229.842 218.838C229.705 218.604 225.913 205.734 216.358 173.08L215.396 169.793L120.764 169.793L26.1318 169.792L25.9971 170.187ZM154.45 187.782C154.45 187.926 154.474 187.985 154.503 187.913C154.532 187.841 154.532 187.722 154.503 187.65C154.474 187.578 154.45 187.637 154.45 187.782ZM81.0121 189.842C81.0172 189.964 81.0421 189.989 81.0757 189.905C81.1061 189.829 81.1023 189.739 81.0673 189.704C81.0324 189.669 81.0076 189.731 81.0121 189.842ZM94.6881 190.262C94.6931 190.385 94.7181 190.41 94.7516 190.326C94.782 190.25 94.7782 190.159 94.7433 190.124C94.7084 190.09 94.6836 190.152 94.6881 190.262ZM144.868 204.044C144.873 204.166 144.898 204.191 144.932 204.107C144.962 204.031 144.959 203.941 144.924 203.906C144.889 203.871 144.864 203.933 144.868 204.044ZM93.4257 211.618C93.4307 211.741 93.4557 211.765 93.4892 211.682C93.5196 211.606 93.5158 211.515 93.4809 211.48C93.446 211.445 93.4212 211.507 93.4257 211.618ZM207.673 227.188C207.678 227.31 207.703 227.335 207.736 227.251C207.767 227.175 207.763 227.084 207.728 227.05C207.693 227.015 207.668 227.077 207.673 227.188ZM132.479 235.805C132.48 236.152 132.499 236.282 132.523 236.093C132.546 235.904 132.546 235.62 132.522 235.461C132.498 235.303 132.478 235.458 132.479 235.805Z" fill="black" fill-opacity="0.247"/>
<path fill-rule="evenodd" clip-rule="evenodd" d="M78.8998 31.8793C78.5237 31.9215 77.8227 31.9617 77.3421 31.9684C76.8614 31.9752 76.1513 32.0268 75.7641 32.0831C75.3768 32.1394 74.6813 32.2395 74.2184 32.3057C72.6566 32.5289 71.1789 32.7956 70.1682 33.0365C69.9078 33.0987 69.5054 33.186 69.274 33.2306C69.0426 33.2753 68.4981 33.4181 68.0642 33.5479C67.6303 33.6778 67.0858 33.833 66.8544 33.8927C66.623 33.9525 66.3169 34.0475 66.1744 34.1037C66.0318 34.1599 65.4874 34.3455 64.9646 34.5163C64.4418 34.6869 63.9193 34.869 63.8036 34.9208C63.6879 34.9727 63.3565 35.098 63.0672 35.1993C62.7779 35.3005 62.4939 35.4157 62.436 35.4554C62.3782 35.4949 61.9849 35.6577 61.562 35.8169C60.1087 36.3644 55.5325 38.7371 54.632 39.41C54.4478 39.5477 54.2742 39.6603 54.2462 39.6603C54.1134 39.6603 50.553 42.1235 49.6162 42.8635C48.2939 43.9081 47.092 44.9508 46.463 45.5993C45.5677 46.5223 42.9102 49.6534 41.7211 51.1864C39.5751 53.9533 36.2991 58.7041 34.4354 61.7523C34.0286 62.4176 33.4282 63.3995 33.1012 63.934C32.7742 64.4686 32.5067 64.925 32.5067 64.9481C32.5067 64.9714 32.137 65.6228 31.6852 66.3958C30.356 68.6696 28.7762 71.6632 28.6741 72.1018C28.6352 72.2685 28.4175 72.84 28.1902 73.3719C27.8315 74.2116 27.4235 75.7063 26.6673 78.9524C25.7875 82.7286 24.5667 90.0595 24.0484 94.6798C23.4499 100.014 23.278 102.012 23.0937 105.778C22.7226 113.363 22.6156 122.774 22.8306 128.922C22.9324 131.83 22.9507 132.01 23.2201 132.757L23.5029 133.54L23.6953 132.914C23.9614 132.049 24.0806 129.854 24.1004 125.451C24.1095 123.426 24.1466 120.917 24.1828 119.875L24.2485 117.982C25.9753 101.576 24.05 112.125 25.6727 101.886C25.7278 101.539 25.8451 100.663 25.9335 99.9398C26.1558 98.1199 26.298 97.1201 26.4048 96.626C26.4549 96.3945 26.571 95.7318 26.663 95.1532C27.1247 92.2487 27.9879 88.0299 28.6219 85.58C28.8614 84.6542 29.0812 83.7784 29.1102 83.6338C29.1897 83.2382 29.8602 80.8009 30.0218 80.32C30.0996 80.0886 30.2871 79.4968 30.4386 79.005C30.869 77.607 31.0945 76.9303 31.5074 75.7964C31.718 75.2178 31.9147 74.6497 31.9443 74.534C31.974 74.4183 32.036 74.2289 32.0821 74.1132C32.1282 73.9975 32.2491 73.6898 32.3507 73.4294C32.4523 73.1691 32.6237 72.7553 32.7315 72.5101C32.8393 72.2648 32.9275 72.0352 32.9275 72C32.9275 71.9647 32.9937 71.7866 33.0745 71.6043C33.1552 71.422 33.3742 70.8941 33.561 70.4312C34.0443 69.2336 35.568 66.0398 36.2462 64.803C36.4524 64.427 36.8397 63.7169 37.1067 63.225C37.3738 62.7332 37.9392 61.775 38.3633 61.0956C38.7873 60.4161 39.1343 59.8126 39.1343 59.7543C39.1343 59.6959 39.1714 59.6483 39.2168 59.6483C39.2622 59.6483 39.3888 59.4945 39.4982 59.3064C39.6076 59.1183 39.7242 58.9408 39.7576 58.9119C39.7908 58.8829 39.8654 58.7806 39.9233 58.6845C40.1697 58.2753 41.1883 56.8348 41.439 56.5411C41.589 56.3655 41.8537 56.0375 42.0273 55.8121C44.3956 52.7383 47.4664 49.6047 50.1277 47.546C50.5327 47.2326 50.8877 46.9513 50.9166 46.9208C50.9456 46.8903 51.1586 46.726 51.39 46.5558C51.6215 46.3856 51.8345 46.2202 51.8634 46.1883C52.05 45.982 54.8256 44.1915 56.1766 43.4057C57.0842 42.8781 61.5515 40.7123 61.7325 40.7123C61.7868 40.7123 62.0899 40.5978 62.4061 40.458C64.5208 39.5229 68.8936 38.2802 72.0618 37.7141C72.8457 37.574 73.3198 37.4843 74.3748 37.2759C74.7262 37.2064 76.7965 36.9643 78.7946 36.7588C80.0371 36.631 81.0261 36.6056 82.95 36.6522C86.9734 36.7497 88.9384 37.0398 92.6283 38.0807C93.4322 38.3074 95.1704 38.9237 96.0844 39.306C97.9833 40.1003 100.784 41.515 101.117 41.8479C101.187 41.9177 101.28 41.9747 101.324 41.9747C101.368 41.9747 101.908 42.31 102.523 42.7197C103.785 43.5607 104.087 43.6806 105.568 43.9303C106.554 44.0965 108.637 44.5128 109.242 44.6648C109.462 44.72 109.513 44.6951 109.513 44.5319C109.513 44.4215 109.47 44.2863 109.419 44.2312C109.367 44.1763 109.122 43.7526 108.875 43.2897C107.752 41.1876 105.651 38.1587 104.22 36.5814C103.202 35.4585 103.032 35.3431 102.096 35.1401C101.749 35.0648 101.253 34.9356 100.995 34.8529C100.576 34.719 100.184 34.6149 98.8877 34.2929C98.6852 34.2426 98.2355 34.1256 97.8883 34.0331C97.5412 33.9405 97.0204 33.8228 96.7311 33.7714C96.4418 33.7201 95.8738 33.6007 95.4687 33.506C95.0637 33.4113 94.5193 33.2934 94.2589 33.2441C93.9986 33.1947 93.4542 33.0795 93.0491 32.9881C92.6441 32.8968 91.9577 32.7707 91.5237 32.7079C90.1268 32.5059 89.5916 32.426 88.8938 32.3154C88.2269 32.2096 86.9408 32.093 84.0546 31.8763C82.4865 31.7586 79.9603 31.76 78.8998 31.8793ZM122.63 47.7607C122.536 48.0514 122.244 49.4892 122.138 50.1803C121.975 51.2425 122.006 54.0422 122.19 54.9165C122.766 57.653 124.005 59.5808 126.3 61.3096C126.921 61.7779 129.63 63.225 129.885 63.225C129.932 63.225 130.278 63.3374 130.656 63.4747C131.033 63.612 131.555 63.7834 131.815 63.8557C132.076 63.9281 132.512 64.0556 132.784 64.1391C133.056 64.2227 133.435 64.2757 133.626 64.257L133.972 64.2228L133.446 63.9456C132.274 63.3279 130.485 61.7149 129.438 60.3321C129.219 60.0428 128.843 59.5457 128.603 59.2275C127.449 57.7012 125.365 54.089 124.505 52.1265C124.404 51.895 124.213 51.469 124.081 51.1797C123.78 50.5201 123.573 50.0213 123.404 49.5491C123.332 49.3466 123.234 49.0862 123.186 48.9705C123.138 48.8548 123.005 48.4997 122.89 48.1815C122.771 47.8523 122.659 47.671 122.63 47.7607ZM109.631 52.6788C109.325 56.2237 108.823 58.0344 107.503 60.3533C107.133 61.003 107.233 61.049 108.729 60.9191C109.414 60.8595 110.001 60.8381 110.033 60.8714C110.113 60.9546 109.929 61.0791 107.882 62.3257C105.496 63.7788 104.253 64.5842 104.254 64.6754C104.255 64.7167 104.59 64.886 105 65.0517C105.712 65.3402 105.76 65.3461 106.129 65.1906C106.341 65.1014 107.012 64.8319 107.619 64.5918C109.718 63.7622 110.858 63.1322 111.613 62.384C112.353 61.6512 112.98 60.598 113.202 59.7172C113.501 58.5294 112.673 55.8738 111.269 53.5193C111.019 53.1004 110.611 52.4145 110.362 51.995C110.113 51.5754 109.875 51.2323 109.832 51.2323C109.79 51.2323 109.699 51.8833 109.631 52.6788ZM92.9965 68.2346C92.1307 68.2919 89.847 68.5879 89.3671 68.7049C89.1357 68.7614 88.4966 68.8959 87.947 69.0039C85.8633 69.4132 82.4444 70.4025 80.0044 71.3022C75.9603 72.7933 71.3169 74.9033 67.8538 76.8234C67.4777 77.0319 66.8623 77.3073 66.4862 77.4353C65.734 77.6914 64.8414 78.099 63.9796 78.5801C62.0178 79.6751 59.663 81.9562 58.5451 83.8442C58.3225 84.2203 58.0384 84.6937 57.9138 84.8962C57.6068 85.3956 57.0041 86.8551 56.372 88.6308C55.4966 91.0893 55.3245 91.5654 55.2124 91.8394C55.1531 91.984 55.035 92.3154 54.9498 92.5758C54.8646 92.8361 54.7317 93.1912 54.6546 93.3648C54.5775 93.5384 54.4389 93.9058 54.3469 94.1813C54.1858 94.6634 53.6876 96.017 53.3892 96.7838C53.3103 96.9863 53.073 97.6254 52.8618 98.204C52.6507 98.7826 52.3676 99.54 52.2327 99.8872C52.0978 100.234 51.8611 100.873 51.7067 101.307C51.5522 101.741 51.387 102.191 51.3397 102.307C51.2922 102.422 51.1943 102.683 51.1219 102.885C51.0495 103.088 50.9296 103.396 50.8553 103.569C50.7812 103.743 50.6486 104.098 50.5608 104.358C50.4729 104.619 50.275 105.163 50.1211 105.568C49.9671 105.973 49.7486 106.565 49.6356 106.883C49.447 107.414 49.2337 107.978 49.0186 108.514C48.9722 108.629 48.8517 108.961 48.7508 109.25C48.65 109.539 48.528 109.821 48.4797 109.876C48.4314 109.931 48.3919 110.061 48.3919 110.165C48.3919 110.343 48.5804 110.355 51.5885 110.355H54.7852L55.8438 107.172C56.4261 105.422 56.9997 103.706 57.1184 103.359C57.2372 103.012 57.5955 101.946 57.9145 100.992C60.7234 92.5883 61.896 89.1097 62.0105 88.8412C62.0845 88.6676 62.2784 88.1942 62.4415 87.7892C62.6045 87.3842 62.8476 86.8762 62.9815 86.6604C63.1154 86.4445 63.225 86.2443 63.225 86.2153C63.225 85.9815 64.954 83.5608 65.7768 82.6425L66.0668 82.3188L66.263 82.5505C66.5932 82.9404 66.7133 84.1698 66.5878 85.8765C66.5274 86.6971 66.4499 87.4611 66.4155 87.5745C66.3811 87.6878 66.3141 88.0428 66.2667 88.3635C66.1774 88.9671 66.1028 89.343 65.8059 90.6822C65.7096 91.1161 65.5927 91.6605 65.546 91.892C65.4183 92.5252 65.034 94.2784 64.7505 95.5214C64.4747 96.7309 64.012 98.8483 63.8425 99.6768C63.7833 99.9661 63.6933 100.345 63.6423 100.518C63.5914 100.692 63.4747 101.213 63.3828 101.676C63.291 102.138 63.1015 103.014 62.9619 103.622C62.8222 104.229 62.5343 105.531 62.3219 106.515C62.1096 107.498 61.8313 108.753 61.7037 109.303L61.4716 110.302L66.681 110.329C70.7792 110.351 71.908 110.328 71.973 110.224C72.0184 110.151 72.0858 109.879 72.1226 109.618C72.1595 109.358 72.2755 108.813 72.3803 108.408C72.4852 108.003 72.6271 107.388 72.6956 107.041C72.8757 106.128 72.9652 105.707 73.2541 104.411C73.396 103.774 73.6155 102.78 73.7419 102.202C73.8683 101.623 74.014 100.984 74.0655 100.781C74.1171 100.579 74.2809 99.8451 74.4295 99.1508C74.7403 97.6993 75.1495 95.8442 75.4276 94.6272C75.5333 94.1643 75.6495 93.6199 75.6858 93.4174C75.8184 92.6786 76.4414 90.0805 76.6696 89.3146C76.9222 88.4669 76.9136 86.1256 76.6544 85.2118C76.1086 83.2874 75.182 81.949 73.4031 80.5151C73.0126 80.2004 72.6949 79.8856 72.6973 79.8158C72.7008 79.7116 73.4976 79.1467 74.3603 78.6368C74.4581 78.5789 74.7741 78.3908 75.0621 78.2186C75.3502 78.0465 75.7753 77.7978 76.0068 77.6659C76.5627 77.3491 80.8339 75.2153 81.372 74.9856C81.6034 74.8869 82.4555 74.5142 83.2656 74.1576C86.9807 72.5222 94.5374 69.8402 97.9409 68.9494C98.6784 68.7563 99.0452 68.5332 98.7749 68.4421C98.3463 68.2976 94.2611 68.1508 92.9965 68.2346ZM106.147 69.3869C106.002 69.4109 105.552 69.4837 105.147 69.5485C104.201 69.7 103.819 69.8615 103.217 70.3645C102.655 70.8336 100.322 72.3692 96.0999 75.0492C92.5791 77.2839 89.6456 79.2854 88.7991 80.0306C87.2793 81.3684 85.7019 83.8633 84.6589 86.5794C83.8683 88.6384 83.6206 89.5285 83.576 90.4718C83.5457 91.1128 83.4097 92.1931 83.1588 93.7856C83.0677 94.3642 82.9479 95.1808 82.8926 95.6003C82.6642 97.3341 82.5781 97.9371 82.4231 98.8878C82.3335 99.4374 82.2168 100.242 82.164 100.676C82.1112 101.11 81.996 101.915 81.9081 102.465C81.8201 103.014 81.7005 103.866 81.6422 104.358C81.5839 104.85 81.4618 105.726 81.3707 106.304C81.207 107.345 81.0615 108.421 80.912 109.697L80.835 110.355H86.173H91.5108L91.5737 109.855C91.7325 108.594 91.8655 107.59 92.0027 106.62C92.0846 106.041 92.201 105.166 92.2616 104.674C92.3223 104.182 92.3944 103.614 92.4218 103.411C92.4493 103.209 92.5649 102.357 92.6788 101.518C92.7927 100.679 92.938 99.59 93.0018 99.0982C93.0657 98.6064 93.183 97.7542 93.2627 97.2046C93.3423 96.6549 93.4596 95.7791 93.5234 95.2584C93.587 94.7376 93.7058 93.8618 93.7871 93.3122C93.8685 92.7625 93.9876 91.8867 94.0518 91.366C94.2622 89.6583 94.6331 88.0613 95.176 86.5268C96.24 83.5186 98.4577 78.4264 98.7037 78.4264C99.0231 78.4264 99.9991 80.8346 100.473 82.7922C100.655 83.5459 100.663 94.105 100.483 96.363C100.301 98.6423 100.148 101.018 100.039 103.254C99.8581 106.957 99.7388 109.036 99.669 109.697L99.5996 110.355H104.862H110.124L110.184 109.381C110.216 108.846 110.315 107.154 110.404 105.621C110.492 104.087 110.612 102.099 110.669 101.202C110.726 100.305 110.795 99.0745 110.822 98.467C110.892 96.9043 111.078 94.2728 111.199 93.1322C111.36 91.6119 111.328 88.3429 111.143 87.421C110.542 84.4228 109.778 82.702 107.914 80.1519C106.714 78.5096 106.63 78.282 106.633 76.6906C106.635 75.5534 106.675 75.2476 106.928 74.4288C107.246 73.401 108.336 71.0569 108.747 70.5159C109.136 70.0053 109.041 69.7449 108.408 69.5801C107.824 69.4279 106.553 69.3194 106.147 69.3869ZM143.453 71.3042C143.377 71.4265 143.508 71.5763 143.808 71.7101C144.435 71.9899 146.014 73.2397 146.985 74.2243C149.197 76.4681 150.032 78.2521 150.331 81.372C150.46 82.7201 150.771 84.4963 151.122 85.8956C151.194 86.1849 151.312 86.7056 151.383 87.0528C151.454 87.3999 151.619 88.039 151.75 88.473C151.881 88.9069 152.043 89.6407 152.11 90.1036C152.178 90.5665 152.298 91.3239 152.378 91.7868C152.458 92.2497 152.576 93.0308 152.641 93.5226C152.706 94.0144 152.825 94.7955 152.906 95.2584C152.987 95.7212 153.103 96.4313 153.164 96.8364C153.225 97.2414 153.39 98.3302 153.532 99.256C153.673 100.182 153.843 101.365 153.91 101.886C153.977 102.407 154.094 103.14 154.169 103.517C154.245 103.893 154.363 104.603 154.431 105.095C154.544 105.911 154.68 106.792 154.958 108.514C155.014 108.861 155.09 109.417 155.127 109.75L155.194 110.355H160.442C164.824 110.355 165.69 110.331 165.69 110.21C165.69 110.13 165.595 109.479 165.48 108.763C165.364 108.047 165.224 107.154 165.167 106.778C165.052 106.017 164.788 104.326 164.633 103.359C164.578 103.012 164.46 102.23 164.372 101.623C164.284 101.015 164.168 100.258 164.114 99.9398C164.061 99.6215 163.963 98.9824 163.897 98.5196C163.831 98.0567 163.709 97.2519 163.627 96.7312C163.472 95.7565 163.383 95.1794 163.108 93.3648C163.02 92.7862 162.904 92.0287 162.851 91.6816C162.797 91.3344 162.704 90.6243 162.645 90.1036C162.585 89.5828 162.439 88.8727 162.319 88.5256C162.098 87.8841 161.101 85.8002 160.557 84.8436C159.37 82.7579 158.242 79.8466 158.62 79.8466C158.752 79.8466 161.247 81.6283 162.547 82.6513C163.502 83.403 165.663 85.5022 166.268 86.2666C167.338 87.6182 167.745 88.4327 168 89.7354C168.218 90.8508 168.538 92.3431 168.941 94.1275C169.062 94.6626 169.26 95.5385 169.381 96.0737C169.6 97.0398 169.938 98.5972 170.324 100.413C170.435 100.934 170.596 101.668 170.681 102.044C170.873 102.885 171.168 104.222 171.53 105.884C171.682 106.578 171.878 107.477 171.968 107.882C172.057 108.287 172.209 108.997 172.305 109.46L172.481 110.302L177.198 110.329L181.915 110.357L181.845 110.066C181.806 109.907 181.734 109.563 181.684 109.303C181.634 109.042 181.5 108.427 181.385 107.935C181.27 107.443 181.118 106.757 181.048 106.41C180.977 106.062 180.861 105.542 180.788 105.252C180.658 104.734 180.616 104.545 180.197 102.57C180.009 101.681 179.596 99.8026 179.366 98.7826C179.32 98.58 179.202 98.0356 179.104 97.5728C179.006 97.1099 178.884 96.5418 178.832 96.3104C178.486 94.7539 178.4 94.3647 178.312 93.9434C178.257 93.683 178.139 93.1386 178.049 92.7336C177.959 92.3286 177.835 91.7605 177.773 91.4712C177.711 91.1819 177.617 90.7558 177.564 90.5244C177.511 90.2929 177.417 89.7249 177.356 89.262C177.133 87.5741 176.127 86.3587 173.438 84.528C172.122 83.6318 170.242 82.3169 168.583 81.1311C166.578 79.6993 165.931 79.2934 163.954 78.2296C162.841 77.6307 162.022 77.2273 159.535 76.0545C158.741 75.6796 154.842 73.9554 154.789 73.9554C154.768 73.9554 154.265 73.7377 153.671 73.4716C153.078 73.2055 152.379 72.8936 152.119 72.7785C151.858 72.6636 151.331 72.4091 150.946 72.2131C150.144 71.8048 148.814 71.4987 147.122 71.333C145.769 71.2006 143.528 71.1829 143.453 71.3042ZM125.503 71.5048C124.662 71.6503 123.01 72.1002 122.889 72.2167C122.77 72.3316 122.772 72.4105 122.906 72.7073C123.722 74.5224 124.167 76.7944 124.027 78.4419C123.893 80.0187 123.676 80.5466 122.682 81.7053C120.803 83.8957 119.865 85.6366 119.29 87.9996C119.004 89.1717 118.982 90.5133 119.165 95.6792C119.237 97.7043 119.351 101.835 119.419 104.858L119.542 110.355H124.758H129.974L129.948 108.592C129.934 107.623 129.878 104.937 129.823 102.622C129.768 100.308 129.719 95.4556 129.713 91.8394C129.701 84.7808 129.702 84.7511 130.259 83.1604C130.733 81.8054 131.55 80.2675 131.705 80.4394C131.975 80.7399 134.053 84.8758 134.607 86.2151C134.821 86.7337 135.079 87.3473 135.18 87.5788C135.338 87.9439 135.633 88.8513 136.016 90.1562C136.076 90.3587 136.195 91.3528 136.282 92.3654C136.368 93.3779 136.489 94.7744 136.55 95.4688C136.699 97.1799 137.082 102.028 137.185 103.517C137.358 106.014 137.49 107.713 137.613 109.013L137.74 110.355H142.93H148.121L148.121 109.697C148.121 109.335 148.075 108.542 148.018 107.935C147.961 107.327 147.843 105.907 147.755 104.779C147.569 102.4 147.456 100.991 147.163 97.3624C146.926 94.4364 146.788 92.5452 146.69 90.8926C146.653 90.285 146.564 89.6911 146.49 89.5726C146.416 89.4543 146.333 89.1229 146.304 88.8362C146.225 88.0441 146.047 87.4612 145.598 86.5316C144.995 85.2822 144.475 84.5316 143.489 83.4907C142.779 82.7411 142.245 82.3209 140.761 81.3432C137.834 79.4143 136.449 78.2728 133.402 75.2788C132.279 74.1749 131.259 73.1769 131.136 73.0612C131.012 72.9455 130.645 72.5989 130.32 72.291C129.798 71.7979 129.642 71.7133 129.009 71.5809C128.342 71.4412 126.146 71.3936 125.503 71.5048ZM168.634 72.781C168.491 72.8286 168.747 73.0167 169.501 73.418C171.739 74.6088 173.074 75.5822 174.928 77.3744C176.046 78.4557 177.075 79.7348 177.63 80.7338C177.761 80.9691 178.233 81.9901 178.678 83.0026C179.795 85.5383 180.876 87.6604 182.214 89.9458C182.603 90.6098 182.735 90.9462 183.08 92.155C183.17 92.4732 183.385 93.207 183.557 93.7856C184.013 95.3193 184.405 96.6502 184.594 97.3098C184.765 97.9029 184.935 98.4794 185.401 100.045C185.547 100.537 185.697 101.081 185.733 101.255C185.769 101.428 185.842 101.665 185.893 101.781C185.945 101.896 186.134 102.512 186.312 103.148C186.491 103.785 186.749 104.684 186.886 105.147C187.478 107.147 187.922 108.676 188.14 109.46L188.373 110.302L193.124 110.329C196.906 110.351 197.867 110.33 197.835 110.224C197.758 109.966 197.235 108.186 196.978 107.304C196.834 106.812 196.665 106.22 196.601 105.989C196.538 105.757 196.426 105.379 196.353 105.147C196.279 104.916 196.161 104.513 196.09 104.253C196.018 103.993 195.9 103.59 195.827 103.359C195.753 103.127 195.642 102.749 195.578 102.517C195.432 101.979 195.151 101.015 195.041 100.676C194.995 100.532 194.884 100.153 194.795 99.8346C194.706 99.5163 194.492 98.7826 194.32 98.204C194.148 97.6254 193.889 96.7496 193.745 96.2578C193.6 95.766 193.315 94.7955 193.11 94.1012C192.741 92.8519 192.361 91.4012 192.269 90.8926C192.243 90.7479 192.189 90.4402 192.151 90.2088C192.076 89.766 191.939 89.1404 191.572 87.5788C191.181 85.9165 191.011 85.3102 190.921 85.2541C190.872 85.224 190.832 85.1119 190.832 85.0049C190.832 84.8158 190.681 84.4774 189.912 82.95C188.958 81.0548 186.343 78.6358 183.679 77.1838C181.493 75.9925 181.82 76.1616 180.628 75.6078C180.078 75.3525 179.451 75.0656 179.234 74.9703C178.884 74.8166 178.675 74.7279 177.84 74.3794C175.752 73.5074 174.087 73.1484 171.002 72.9048C169.008 72.7473 168.772 72.735 168.634 72.781ZM42.4128 126.108C41.1298 129.565 40.0802 132.429 40.0805 132.473C40.0809 132.516 76.9853 132.552 122.09 132.552C182.505 132.552 204.081 132.521 204.027 132.434C203.987 132.369 203.917 132.168 203.872 131.987C203.826 131.806 203.696 131.397 203.582 131.079C203.469 130.761 203.292 130.216 203.189 129.869C203.086 129.522 202.966 129.167 202.924 129.08C202.881 128.993 202.789 128.709 202.719 128.449C202.649 128.189 202.528 127.81 202.449 127.607C202.37 127.405 202.183 126.837 202.032 126.345C201.882 125.853 201.719 125.356 201.671 125.24C201.496 124.822 199.984 120.082 199.984 119.954C199.985 119.849 184.391 119.823 122.365 119.823H44.7455L42.4128 126.108ZM32.3964 153.079C31.0395 156.732 29.9135 159.762 29.8943 159.812C29.8744 159.864 69.3362 159.904 121.129 159.904C171.327 159.904 212.398 159.881 212.398 159.854C212.398 159.819 209.007 148.169 208.546 146.622C208.494 146.447 204.267 146.438 121.678 146.438H34.8636L32.3964 153.079ZM25.6953 171.186C24.8647 173.369 23.5975 176.766 19.2698 188.413C18.0551 191.682 15.7503 197.883 14.148 202.194C10.9719 210.738 9.80364 213.975 9.51613 215.028C9.41346 215.404 9.23809 215.896 9.12626 216.121C9.01454 216.346 8.76627 216.985 8.57459 217.541C8.38292 218.097 8.05364 218.971 7.84303 219.482C7.37626 220.616 7.29684 220.975 7.46747 221.18C7.61149 221.354 16.0014 225.653 16.1959 225.653C16.2632 225.653 16.2915 225.61 16.2588 225.557C16.226 225.504 16.5109 224.545 16.8918 223.427C17.2727 222.308 17.626 221.251 17.6768 221.077C17.8293 220.556 18.9487 217.201 19.0456 216.974C19.0952 216.859 20.2108 213.545 21.5248 209.61C22.8388 205.676 25.5431 197.605 27.5344 191.674C29.5256 185.743 31.195 180.749 31.2441 180.575C31.3712 180.126 32.5125 176.725 32.6208 176.473C32.7395 176.197 34.8211 169.936 34.8211 169.855C34.8211 169.82 32.8872 169.792 30.5235 169.792H26.2258L25.6953 171.186ZM48.3429 169.976C48.3037 170.078 48.1552 170.705 48.0128 171.37C47.4168 174.158 47.2459 174.94 47.0485 175.789C46.9341 176.281 46.7843 176.967 46.7156 177.314C46.647 177.661 46.5443 178.096 46.4875 178.281C46.4306 178.465 46.339 178.868 46.2836 179.175C46.2284 179.482 46.1402 179.923 46.0875 180.155C46.0349 180.386 45.8676 181.143 45.7158 181.838C45.564 182.532 45.3976 183.29 45.346 183.521C45.2944 183.752 45.1307 184.517 44.9822 185.22C44.8339 185.923 44.6724 186.61 44.6234 186.746C44.5745 186.881 44.4743 187.348 44.401 187.782C44.3277 188.215 44.2275 188.689 44.1785 188.834C44.1295 188.978 43.9865 189.594 43.8608 190.201C43.7351 190.809 43.5944 191.471 43.5482 191.674C43.502 191.876 43.3465 192.587 43.2026 193.252C42.9239 194.54 42.5823 196.058 42.3383 197.092C42.2564 197.439 42.0684 198.315 41.9205 199.038C41.7726 199.761 41.6113 200.495 41.5622 200.669C41.5131 200.842 41.4144 201.268 41.3429 201.615C41.2715 201.962 41.1015 202.744 40.9652 203.351C40.8288 203.959 40.5481 205.237 40.3413 206.191C40.1346 207.146 39.8749 208.306 39.7642 208.769C39.6534 209.232 39.4884 209.966 39.3974 210.399C39.3064 210.833 39.1871 211.402 39.1324 211.662C39.0776 211.922 38.9121 212.68 38.7646 213.345C38.6172 214.01 38.3818 215.076 38.2417 215.712C38.1014 216.349 37.8868 217.319 37.7649 217.869C37.33 219.829 37.2371 220.251 36.9778 221.445C36.8335 222.111 36.597 223.176 36.4524 223.812C36.3078 224.449 36.1158 225.325 36.0256 225.759C35.9354 226.193 35.7911 226.855 35.705 227.231C35.47 228.257 35.3757 228.679 35.1877 229.546C35.0937 229.98 34.9642 230.572 34.9 230.861C34.8358 231.15 34.7186 231.441 34.6396 231.507C34.4911 231.632 34.5486 232.125 34.7243 232.234C34.8498 232.311 44.9632 233.953 45.0142 233.904C45.0368 233.882 44.9966 233.793 44.9248 233.707C44.8239 233.585 44.8209 233.435 44.9116 233.047C45.2788 231.476 45.5559 230.243 45.6982 229.546C45.7868 229.112 45.933 228.425 46.0232 228.02C46.1133 227.615 46.3045 226.752 46.4479 226.101C47.0829 223.219 47.3281 222.119 47.6026 220.919C47.8438 219.866 47.9229 219.503 48.2217 218.079C48.3613 217.414 48.6044 216.301 48.7618 215.607C48.9193 214.913 49.0855 214.179 49.1313 213.976C49.1771 213.774 49.2948 213.229 49.3929 212.766C49.491 212.304 49.6087 211.759 49.6545 211.557C49.7003 211.354 49.8568 210.644 50.0023 209.979C50.1477 209.313 50.3954 208.201 50.5526 207.507C50.7097 206.812 50.874 206.055 50.9176 205.823C50.9613 205.592 51.0792 205.047 51.1796 204.614C51.2801 204.18 51.4013 203.635 51.449 203.404C51.4965 203.172 51.6576 202.439 51.8067 201.773C51.9559 201.108 52.1195 200.374 52.1704 200.143C52.2213 199.911 52.384 199.177 52.5318 198.512C52.6797 197.847 52.8977 196.852 53.0162 196.303C53.209 195.41 53.6031 193.619 53.8617 192.463C53.9135 192.231 54.032 191.687 54.1252 191.253C54.2184 190.819 54.3382 190.275 54.3913 190.043C54.7579 188.445 55.0302 187.241 55.1165 186.835C55.1721 186.574 55.2856 186.054 55.369 185.678C55.4523 185.301 55.5787 184.71 55.6497 184.363C55.7207 184.015 55.8708 183.343 55.9833 182.868C56.0957 182.394 56.23 181.779 56.2816 181.501C56.3333 181.223 56.4973 180.452 56.6461 179.786C56.7949 179.121 56.96 178.364 57.0128 178.103C57.0657 177.843 57.1353 177.559 57.1676 177.472C57.2224 177.325 57.4082 176.486 58.0182 173.632C58.1542 172.996 58.3653 172.025 58.4872 171.476C58.6093 170.926 58.7372 170.322 58.7716 170.134L58.8342 169.792H53.6243C48.7597 169.792 48.4096 169.805 48.3429 169.976ZM72.2687 169.924C72.2651 170.063 72.1846 170.661 71.904 172.633C71.6047 174.736 71.558 175.069 71.3362 176.683C71.217 177.551 71.0699 178.569 71.0093 178.945C70.8702 179.808 70.49 182.461 70.3762 183.363C70.3287 183.739 70.2132 184.52 70.1196 185.099C70.0259 185.678 69.9059 186.506 69.853 186.94C69.8001 187.374 69.7084 188.06 69.6491 188.465C69.5899 188.87 69.4732 189.699 69.3898 190.306C69.2169 191.566 68.8519 194.132 68.7014 195.146C68.5083 196.446 68.3862 197.307 68.2242 198.512C68.1347 199.177 68.0157 200.006 67.9599 200.353C67.9041 200.7 67.7861 201.505 67.6977 202.141C67.6092 202.778 67.4911 203.606 67.4351 203.982C67.292 204.943 67.0442 206.713 66.905 207.77C66.8401 208.261 66.7438 208.924 66.6909 209.242C66.638 209.561 66.5219 210.365 66.4329 211.031C66.2498 212.399 66.1098 213.358 65.9533 214.318C65.8942 214.68 65.7993 215.354 65.742 215.817C65.6024 216.949 65.4843 217.802 65.276 219.184C65.0886 220.427 65.0415 220.759 64.7086 223.181C64.5895 224.049 64.4436 225.067 64.3847 225.443C64.3258 225.819 64.2046 226.648 64.1155 227.284C63.8992 228.828 63.7878 229.604 63.6015 230.861C63.5158 231.439 63.3918 232.315 63.3258 232.807C63.2598 233.299 63.1348 234.104 63.0479 234.595C62.7598 236.224 62.7591 236.321 63.0317 236.625L63.2776 236.9L68.9584 237.38C72.0828 237.645 74.7812 237.872 74.9548 237.885C75.3354 237.914 75.3322 237.774 74.933 236.927C74.6287 236.283 74.6323 236.065 74.9889 233.543C75.1075 232.704 75.2252 231.829 75.2504 231.597C75.2755 231.366 75.3958 230.466 75.5174 229.598C75.6391 228.731 75.7908 227.618 75.8545 227.126C75.9182 226.634 76.0354 225.782 76.1151 225.233C76.1948 224.683 76.3117 223.807 76.3748 223.286C76.438 222.766 76.5596 221.89 76.6449 221.34C76.7302 220.791 76.8665 219.773 76.9475 219.078C77.0286 218.384 77.1921 217.106 77.3108 216.238C77.4295 215.37 77.5789 214.258 77.6426 213.766C77.7065 213.274 77.8238 212.422 77.9035 211.872C77.9832 211.323 78.1007 210.447 78.1646 209.926C78.2286 209.405 78.3478 208.506 78.4296 207.927C78.5893 206.798 78.6941 206.022 78.9552 204.035C79.0464 203.341 79.1665 202.488 79.222 202.141C79.2775 201.794 79.395 200.895 79.4828 200.143C79.5706 199.39 79.6856 198.515 79.7382 198.196C79.7909 197.878 79.8837 197.215 79.9445 196.724C80.0053 196.232 80.1702 194.977 80.3108 193.936C80.4515 192.894 80.643 191.45 80.7366 190.727C80.8301 190.004 80.9499 189.128 81.0027 188.781C81.0556 188.434 81.1483 187.771 81.2088 187.308C81.2693 186.845 81.3702 186.088 81.4329 185.625C81.4957 185.162 81.5885 184.452 81.6391 184.047C81.6898 183.642 81.8062 182.766 81.898 182.101C81.9897 181.435 82.1062 180.56 82.1568 180.155C82.2075 179.75 82.3262 178.85 82.4209 178.156C82.6869 176.204 82.7601 175.653 82.9943 173.843C83.114 172.917 83.2571 171.875 83.3125 171.528C83.3678 171.181 83.4407 170.649 83.4744 170.345L83.5358 169.792H77.904C73.4705 169.792 72.2715 169.82 72.2687 169.924ZM96.1114 170.345C96.0506 170.858 95.9812 171.999 95.7317 176.578C95.6782 177.561 95.5611 179.55 95.4716 180.996C95.1684 185.896 95.1051 186.988 94.9961 189.202C94.9363 190.417 94.8429 191.955 94.7886 192.621C94.7343 193.286 94.6385 194.848 94.5757 196.092C94.5129 197.336 94.3938 199.396 94.3112 200.669C94.2285 201.941 94.1112 203.882 94.0504 204.982C93.8332 208.91 93.6287 212.353 93.3099 217.448C93.2502 218.403 93.1559 220.012 93.1004 221.025C92.9692 223.416 92.831 225.796 92.6267 229.178C92.4001 232.928 92.2722 235.144 92.1925 236.706L92.125 238.027L92.461 238.731L92.7969 239.435L93.6068 239.445C94.0522 239.45 96.3577 239.511 98.7299 239.58C101.102 239.649 103.078 239.679 103.12 239.646C103.162 239.613 103.056 239.318 102.883 238.991L102.57 238.395L102.68 236.627C102.789 234.879 102.828 234.221 103.14 228.862C103.414 224.161 103.513 222.501 103.623 220.709C103.752 218.597 104.022 213.987 104.147 211.767C104.197 210.87 104.288 209.332 104.348 208.348C104.409 207.364 104.508 205.66 104.568 204.561C104.629 203.462 104.725 201.828 104.781 200.932C105.022 197.132 105.107 195.726 105.205 193.936C105.338 191.512 105.47 189.247 105.674 185.888C105.763 184.413 105.88 182.353 105.932 181.312C105.984 180.27 106.054 179.158 106.088 178.84C106.147 178.292 106.23 176.84 106.463 172.288C106.519 171.202 106.594 170.196 106.63 170.053L106.695 169.792H101.436H96.1767L96.1114 170.345ZM120.598 171.712C120.637 172.768 120.714 176.52 120.769 180.049C120.881 187.279 121.03 195.351 121.186 202.667C121.245 205.387 121.318 209.391 121.348 211.566C121.379 213.742 121.429 216.677 121.459 218.089C121.489 219.501 121.561 223.213 121.618 226.337C121.854 239.063 121.841 238.64 121.995 238.73C122.074 238.777 122.258 239.049 122.403 239.335L122.666 239.855L123.533 239.854C124.764 239.853 133.21 239.548 133.254 239.503C133.275 239.483 133.068 238.997 132.794 238.425L132.297 237.383L132.269 235.121C132.254 233.877 132.193 230.422 132.133 227.442C132.073 224.462 131.975 219.184 131.915 215.712C131.855 212.24 131.759 207.222 131.701 204.561C131.644 201.899 131.553 196.81 131.499 193.252C131.386 185.806 131.225 177.065 131.121 172.764L131.049 169.792H125.787H120.526L120.598 171.712ZM142.375 169.976C142.405 170.078 142.457 170.563 142.491 171.055C142.524 171.547 142.598 172.47 142.654 173.106C142.71 173.743 142.827 175.234 142.914 176.42C143.001 177.606 143.099 178.837 143.132 179.155C143.166 179.473 143.235 180.326 143.286 181.049C143.374 182.286 143.581 184.973 143.809 187.834C143.864 188.528 143.956 189.759 144.014 190.569C144.072 191.379 144.165 192.563 144.221 193.199C144.278 193.836 144.371 194.972 144.43 195.724C144.488 196.476 144.587 197.707 144.649 198.459C144.712 199.212 144.809 200.442 144.866 201.195C145.076 203.967 145.175 205.238 145.333 207.191C145.421 208.29 145.539 209.805 145.594 210.557C145.649 211.309 145.768 212.801 145.858 213.871C145.947 214.941 146.066 216.456 146.122 217.237C146.178 218.019 146.295 219.51 146.382 220.551C146.469 221.593 146.59 223.108 146.651 223.918C146.712 224.728 146.805 225.935 146.857 226.6C146.91 227.266 147.028 228.757 147.119 229.914C147.369 233.079 147.486 234.582 147.629 236.429C147.727 237.687 147.796 238.116 147.906 238.153C147.988 238.18 148.161 238.318 148.291 238.458L148.529 238.714L153.506 238.329C156.244 238.117 158.544 237.925 158.618 237.902C158.715 237.873 158.668 237.693 158.448 237.254C158.133 236.623 158.138 236.657 157.904 233.649C157.847 232.925 157.727 231.411 157.636 230.282C157.545 229.154 157.428 227.639 157.376 226.916C157.324 226.193 157.207 224.701 157.116 223.602C157.025 222.503 156.907 220.964 156.854 220.183C156.801 219.402 156.732 218.55 156.701 218.289C156.67 218.029 156.573 216.846 156.486 215.659C156.399 214.473 156.28 212.958 156.221 212.293C156.163 211.628 156.045 210.136 155.959 208.979C155.873 207.822 155.755 206.307 155.697 205.613C155.596 204.41 155.395 201.81 155.164 198.722C155.105 197.941 155.013 196.829 154.958 196.25C154.904 195.672 154.787 194.204 154.7 192.989C154.612 191.774 154.493 190.235 154.434 189.57C154.376 188.905 154.258 187.413 154.172 186.256C154.086 185.099 153.967 183.56 153.908 182.837C153.755 180.953 153.515 177.885 153.378 176.052C153.313 175.184 153.192 173.769 153.11 172.907C153.028 172.046 152.96 171.099 152.959 170.803C152.958 170.508 152.929 170.159 152.894 170.029L152.831 169.792H147.576C142.621 169.792 142.324 169.803 142.375 169.976ZM164.365 169.976C164.397 170.078 164.468 170.468 164.523 170.844C164.578 171.22 164.747 172.333 164.899 173.317C165.051 174.3 165.216 175.389 165.266 175.736C165.316 176.083 165.435 176.864 165.531 177.472C165.888 179.731 166.375 182.888 166.693 184.994C167.078 187.548 167.451 189.994 167.526 190.464C167.563 190.696 167.662 191.311 167.746 191.832C168.028 193.59 168.416 196.14 168.53 196.987C168.592 197.449 168.759 198.538 168.902 199.406C169.168 201.026 169.448 202.826 169.794 205.139C169.902 205.863 170.066 206.928 170.16 207.507C170.254 208.085 170.373 208.873 170.425 209.257C170.477 209.641 170.613 210.54 170.728 211.256C170.842 211.971 171.013 213.1 171.109 213.766C171.204 214.431 171.322 215.165 171.371 215.396C171.42 215.628 171.516 216.243 171.586 216.764C171.655 217.285 171.803 218.279 171.916 218.973C172.028 219.668 172.162 220.543 172.213 220.919C172.264 221.296 172.383 222.053 172.476 222.603C172.569 223.152 172.669 223.791 172.699 224.023C172.728 224.254 172.867 225.177 173.007 226.074C173.148 226.971 173.308 228.013 173.364 228.389C173.717 230.774 173.804 231.337 173.891 231.808C173.944 232.097 174.064 232.878 174.158 233.543C174.251 234.209 174.38 235.002 174.444 235.306C174.549 235.807 174.586 235.858 174.844 235.858C175.481 235.858 180.418 235.088 182.693 234.634L185.127 234.149L184.837 233.504C184.55 232.866 184.468 232.453 183.943 229.02C183.797 228.065 183.632 227 183.576 226.653C183.429 225.737 182.962 222.681 182.828 221.761C182.765 221.327 182.666 220.712 182.608 220.393C182.55 220.075 182.464 219.507 182.417 219.131C182.34 218.511 182.2 217.591 181.887 215.659C181.826 215.283 181.733 214.668 181.679 214.292C181.626 213.916 181.505 213.135 181.409 212.556C181.314 211.977 181.197 211.22 181.149 210.873C181.101 210.526 180.984 209.745 180.89 209.137C180.796 208.53 180.677 207.748 180.627 207.401C180.576 207.054 180.46 206.297 180.368 205.718C180.092 203.975 179.993 203.332 179.888 202.615C179.834 202.239 179.715 201.481 179.624 200.932C179.467 199.981 179.413 199.613 179.16 197.776C179.1 197.342 179.008 196.75 178.955 196.461C178.843 195.846 178.695 194.897 178.47 193.357C178.381 192.75 178.265 191.992 178.211 191.674C178.158 191.356 178.06 190.717 177.994 190.254C177.928 189.791 177.806 188.986 177.723 188.465C177.641 187.945 177.528 187.211 177.473 186.835C177.303 185.681 177.051 184.077 176.943 183.468C176.887 183.15 176.743 182.227 176.622 181.417C176.502 180.607 176.359 179.66 176.305 179.313C175.96 177.082 175.873 176.505 175.789 175.894C175.737 175.518 175.621 174.76 175.53 174.211C175.44 173.661 175.321 172.904 175.266 172.528C175.048 171.03 174.944 170.358 174.886 170.082L174.825 169.792H169.566C164.607 169.792 164.311 169.803 164.365 169.976ZM185.887 171.502C186.1 172.442 186.407 173.827 186.569 174.579C186.731 175.331 186.955 176.349 187.067 176.841C187.178 177.333 187.356 178.137 187.462 178.629C187.568 179.121 187.802 180.21 187.982 181.049C188.163 181.888 188.355 182.74 188.409 182.942C188.464 183.145 188.632 183.902 188.784 184.626C189.283 187.011 189.435 187.719 189.655 188.676C189.774 189.196 189.995 190.191 190.146 190.885C190.296 191.579 190.463 192.337 190.515 192.568C190.567 192.8 190.686 193.344 190.78 193.778C190.873 194.212 190.992 194.756 191.043 194.988C191.095 195.219 191.26 195.977 191.41 196.671C191.783 198.402 191.844 198.674 192.031 199.459C192.121 199.835 192.269 200.521 192.361 200.984C192.452 201.447 192.616 202.204 192.726 202.667C192.956 203.634 193.347 205.416 193.464 206.034C193.555 206.509 193.695 207.168 193.934 208.243C194.024 208.648 194.141 209.197 194.195 209.464C194.249 209.731 194.388 210.346 194.504 210.832C194.686 211.597 194.853 212.345 195.261 214.239C195.311 214.471 195.425 214.991 195.515 215.396C195.606 215.801 195.724 216.346 195.778 216.606C195.832 216.867 195.998 217.624 196.147 218.289C196.473 219.747 196.559 220.149 196.719 220.972C196.787 221.319 196.884 221.745 196.935 221.919C196.986 222.092 197.106 222.613 197.203 223.076C197.299 223.539 197.468 224.32 197.577 224.812C197.687 225.304 197.822 225.919 197.877 226.179C197.932 226.44 198.046 226.961 198.129 227.337C198.213 227.713 198.362 228.399 198.459 228.862C198.699 229.998 198.828 230.41 199.004 230.598C199.086 230.685 199.215 230.847 199.292 230.958C199.425 231.154 199.578 231.117 203.626 229.919C205.934 229.237 207.878 228.648 207.946 228.612C208.034 228.565 207.991 228.38 207.8 227.968C207.651 227.65 207.447 226.987 207.345 226.495C207.243 226.003 207.079 225.246 206.98 224.812C206.882 224.378 206.715 223.62 206.611 223.129C206.506 222.637 206.295 221.666 206.141 220.972C205.576 218.42 205.385 217.545 204.879 215.191C204.73 214.499 204.567 213.765 204.515 213.56C204.464 213.355 204.373 212.951 204.314 212.661C204.255 212.372 204.081 211.567 203.927 210.873C203.354 208.276 203.157 207.379 202.984 206.56C202.886 206.097 202.768 205.576 202.722 205.402C202.676 205.229 202.582 204.803 202.513 204.456C202.443 204.109 202.274 203.327 202.138 202.72C201.791 201.177 201.468 199.681 201.236 198.533C201.127 197.996 200.947 197.167 200.835 196.692C200.629 195.821 200.327 194.463 199.823 192.147C199.672 191.453 199.507 190.696 199.457 190.464C199.406 190.233 199.289 189.688 199.196 189.254C199.104 188.82 198.986 188.3 198.935 188.097C198.885 187.895 198.791 187.469 198.728 187.15C198.665 186.832 198.563 186.359 198.502 186.098C198.441 185.838 198.353 185.436 198.306 185.204C198.259 184.973 198.139 184.428 198.04 183.994C197.94 183.56 197.817 183.016 197.767 182.785C197.427 181.203 196.682 177.799 196.502 176.999C196.45 176.767 196.357 176.297 196.297 175.954C196.236 175.611 196.165 175.296 196.138 175.252C196.112 175.209 196.044 174.945 195.988 174.666C195.932 174.387 195.812 173.827 195.722 173.422C195.552 172.658 195.5 172.413 195.205 171.002C195.108 170.539 195.005 170.078 194.975 169.976C194.925 169.805 194.606 169.792 190.21 169.792H185.5L185.887 171.502ZM205.771 169.828C205.771 169.847 205.86 170.143 205.969 170.485C206.078 170.827 206.249 171.391 206.349 171.739C206.448 172.086 206.638 172.725 206.769 173.159C207.123 174.324 207.449 175.45 207.623 176.104C207.708 176.423 207.899 177.085 208.049 177.577C208.199 178.069 208.431 178.85 208.566 179.313C208.816 180.173 209.088 181.095 209.666 183.048C209.846 183.655 210.088 184.505 210.203 184.936C210.319 185.368 210.437 185.758 210.465 185.803C210.493 185.848 210.586 186.158 210.672 186.492C210.758 186.825 210.946 187.488 211.091 187.964C211.236 188.441 211.469 189.222 211.608 189.7C211.942 190.845 212.314 192.105 212.719 193.462C212.901 194.07 213.094 194.756 213.148 194.988C213.248 195.411 213.351 195.768 214.016 197.986C214.783 200.543 214.92 201.008 215.138 201.773C215.261 202.207 215.48 202.964 215.624 203.456C215.769 203.948 215.927 204.493 215.975 204.666C216.023 204.84 216.188 205.408 216.342 205.928C216.495 206.449 216.662 207.017 216.711 207.191C216.761 207.364 216.88 207.767 216.974 208.085C217.069 208.403 217.188 208.806 217.237 208.979C217.287 209.153 217.406 209.555 217.5 209.873C217.595 210.192 217.713 210.594 217.762 210.768C217.811 210.941 217.977 211.509 218.13 212.03C218.284 212.551 218.446 213.119 218.491 213.292C218.536 213.466 218.674 213.939 218.798 214.344C218.923 214.749 219.589 217.014 220.278 219.376C220.968 221.739 221.556 223.695 221.585 223.724C221.901 224.04 227.003 221.398 228.854 219.959C229.825 219.204 229.949 219.074 229.827 218.929C229.75 218.838 226.553 208.064 222.724 194.988C218.894 181.911 215.664 170.893 215.547 170.502L215.334 169.792H210.552C207.922 169.792 205.771 169.808 205.771 169.828Z" fill="black" fill-opacity="0.88"/>
</mask>
<g mask="url(#mask0_54_205)">
<rect width="732.563" height="440.635" transform="matrix(0.989536 -0.144289 0.162139 0.986768 -138.908 -114.729)" fill="url(#paint0_linear_54_205)"/>
</g>
<defs>
<linearGradient id="paint0_linear_54_205" x1="219.105" y1="-1101.59" x2="1604.64" y2="-935.035" gradientUnits="userSpaceOnUse">
<stop stop-color="#000428"/>
<stop offset="1" stop-color="#004E92"/>
</linearGradient>
</defs>
</svg>
